<?xml version="1.0" encoding="utf-8"?>
<!-- Generator: Adobe Illustrator 15.0.0, SVG Export Plug-In . SVG Version: 6.00 Build 0)  -->
<!DOCTYPE svg PUBLIC "-//W3C//DTD SVG 1.1//EN" "http://www.w3.org/Graphics/SVG/1.1/DTD/svg11.dtd">
<svg version="1.1" id="Layer_1" xmlns="http://www.w3.org/2000/svg" xmlns:xlink="http://www.w3.org/1999/xlink" x="0px"
     y="0px"
     width="145px" height="56px" viewBox="0 0 581 226.77" enable-background="new 0 0 581 226.77"
     xml:space="preserve">
<g>
	<rect x="19.994" y="18.427" fill="#0065BD" width="191.165" height="191.164"/>
    <g>
		<path fill="#FFFFFF" d="M174.933,101.327l4.898-3.575c-1.852-1.985-3.839-4.367-3.839-8.206c0-2.911,1.987-6.088,4.5-7.411
			c-1.323-1.588-3.442-3.042-6.485-3.042c-3.971,0-7.28,2.912-7.28,6.748c0,2.646,1.72,4.898,3.707,5.956
			C170.435,95.501,172.157,98.81,174.933,101.327 M148.732,75.255l4.102-7.281h-6.089c0,1.324-1.192,2.779-2.65,2.779
			c-1.584,0-2.644-1.058-2.644-2.779h-5.426c0,1.589-1.191,2.779-2.646,2.779c-1.457,0-2.648-1.19-2.648-2.779h-6.088l3.574,7.014
			c2.782-0.263,5.425-0.395,8.073-0.395C141.185,74.593,145.422,74.856,148.732,75.255 M137.613,139.837
			c-0.662-1.191-1.323-2.648-1.323-5.292c0-3.443,1.984-6.354,6.221-8.208c2.779-1.323,4.894-2.514,8.601-4.365
			c8.735-4.5,11.779-12.971,11.779-21.705c0-4.367-1.192-7.809-2.646-10.721c0.394,2.382,0.792,4.37,0.792,6.75
			c0,9.132-3.175,15.882-11.513,19.984c-5.292,2.646-7.943,3.705-11.119,5.294c-4.495,2.38-7.013,5.426-7.013,9.132
			C131.392,135.337,133.772,138.778,137.613,139.837 M132.453,138.117c-1.454-1.458-3.043-4.104-3.043-7.544
			c0-4.367,2.91-8.072,8.072-10.721c4.5-2.117,7.145-3.177,11.115-5.029c8.34-4.101,10.852-11.116,10.852-18.658
			c0-7.28-2.38-10.986-4.366-13.369c1.455,2.78,1.854,6.088,1.854,8.869c0,8.073-2.38,15.086-11.779,18.792
			c-4.765,1.984-7.809,2.646-11.911,4.497c-6.486,3.047-9,6.62-9,11.912C124.246,131.896,127.424,136.659,132.453,138.117
			 M127.424,137.059c-2.252-1.853-5.164-4.897-5.164-10.324c0-5.689,2.383-9.924,9.793-13.101c4.767-1.984,7.281-2.911,11.78-4.632
			c9.528-3.573,11.514-10.587,11.514-17.471c0-6.615-2.383-10.455-5.294-12.968c1.72,2.118,2.78,5.692,2.78,9.396
			c0,8.734-3.31,13.632-12.706,16.941c-3.838,1.19-7.939,2.38-12.176,3.969c-7.674,2.912-11.646,7.146-11.646,14.294
			C116.306,130.573,121.996,136.133,127.424,137.059 M122.129,136.133c-5.294-2.648-7.809-8.338-7.809-13.368
			c0-7.279,4.5-12.44,12.042-15.221c4.637-1.719,8.34-2.776,12.973-4.365c9-3.177,11.911-7.411,11.911-15.484
			c0-4.632-1.721-8.602-4.5-10.852c0.925,1.058,1.191,2.38,1.191,3.573c0,2.25-1.191,3.307-2.911,3.307
			c-1.06,0-2.119-0.661-2.25-1.719c0.528,0.394,0.927,0.529,1.458,0.529c1.454,0,2.247-1.06,2.247-2.516
			c0-2.25-2.117-3.442-4.234-3.706c-1.854-0.265-3.84-0.265-6.089-0.265c-2.247,0-4.366,0.133-7.145,0.265
			c1.719,2.382,7.412,1.721,9.131,2.911c-1.458-0.13-2.913-0.13-4.37,0.264c0,0.929-0.393,1.987-1.32,1.987
			c-1.722,0-2.515-1.853-3.706-5.162l-6.75,0.531c-1.059,0.131-1.455,0.529-1.324,1.323l0.663,6.617
			c0,0.263,0.265,0.396,0.531,0.396c0.264,0,0.526-0.133,0.66-0.531c0.265-0.529,1.061-1.719,3.044-1.719
			c2.911,0,5.161,2.647,5.291,5.69c-1.057-1.454-3.438-2.779-7.412-2.779c-3.042,0-5.555,0.927-9.525,0.927
			c-4.235,0-6.617-1.589-6.617-3.573c0-0.927,0.13-1.458,0.661-2.119c-1.721,0.794-3.044,2.251-3.044,4.632
			c0,2.912,2.119,5.958,8.336,5.958c5.69,0,8.34-3.575,13.5-3.575c2.383,0,3.575,1.19,3.575,2.515c0,1.19-1.062,2.25-2.911,2.25
			c-2.252,0-3.837-1.191-4.633-2.383c-0.133-0.265-0.265-0.396-0.531-0.396c-0.395,0-0.529,0.264-0.529,0.529l0.135,6.352
			c0,0.795,0.395,1.193,1.323,1.06c3.97-0.398,8.072-0.927,11.911-1.19c7.146-0.662,12.044-5.429,12.044-10.72
			c0-0.795,0-1.458-0.134-2.25c0.66,1.06,0.926,2.117,0.926,3.44c0,4.897-2.646,8.604-11.115,10.854
			c-4.502,1.19-7.809,1.719-11.649,2.646c-10.189,2.382-16.805,10.19-16.805,18.926
			C108.366,127.795,114.057,135.074,122.129,136.133 M77.792,88.356c0.531-1.19,0.664-2.25,0.664-3.044
			c0-1.721-0.796-3.307-1.589-3.969c1.985,0,3.705,1.454,3.705,3.44C80.572,86.635,79.381,87.827,77.792,88.356 M102.146,119.853
			l4.234-2.25c1.456-8.865,6.749-15.086,16.013-17.335c-4.895,0.263-9.132,0.396-15.084,0.661
			c-6.353,0.264-16.808,1.06-24.086,1.588c-1.458,0.133-2.383-0.398-2.78-1.588c-0.396-1.323-1.191-3.838-1.323-5.294
			c-0.135-1.192,0.132-1.986,1.192-2.778c2.115-1.458,4.234-3.177,4.234-6.75c0-3.839-3.31-6.353-6.353-6.353
			c-1.059,0-1.853,0.131-2.514,0.395c-0.796-0.528-1.588-0.926-3.177-0.926c-2.252,0-4.235,1.457-4.766,2.646
			c-3.836-0.263-6.88,2.515-6.617,6.221c0.529-0.531,1.588-1.057,2.781-1.057c1.454,0,2.778,1.057,2.778,2.646
			c0,1.456-0.266,3.31-0.266,5.292c0,6.09,4.898,9.268,4.898,12.442c0,1.588-1.192,2.912-2.781,2.912
			c0.927,3.309,3.971,5.029,8.072,5.029c2.648,0,5.032-0.265,8.868-0.265C96.455,115.089,101.217,116.28,102.146,119.853
			 M142.906,157.307h1.327c-0.138-4.235-1.192-7.147-2.913-10.189c-0.928-1.722-2.119-3.572-3.046-4.768
			c-0.528-0.792-1.192-1.056-1.984-1.056c-0.53,0-0.927,0.395-0.53,1.056c1.061,1.721,2.515,4.369,4.368,8.471
			c-1.588,0.267-1.985,1.06-1.985,2.383C138.143,155.319,140.128,157.307,142.906,157.307 M72.633,88.885
			c0.13-3.706-1.456-5.69-3.706-6.617c0.397-0.132,0.925-0.398,1.72-0.398c1.721,0,3.574,1.458,3.574,3.707
			C74.221,86.768,73.824,88.09,72.633,88.885 M157.464,182.054c-0.528-1.189-2.25-2.382-4.367-2.382
			c-1.192,0-1.984,0.265-2.515,0.531c0.133-1.062,1.192-2.251,3.31-2.251C156.405,177.952,157.728,179.937,157.464,182.054
			 M156.67,187.745c-0.794-0.925-2.115-1.72-3.836-1.72c-2.119,0-3.176,0.927-3.707,1.588c-0.264-1.588,1.059-3.572,3.574-3.572
			C155.348,184.041,156.67,185.892,156.67,187.745 M62.576,124.616c0.925-2.25,3.042-3.837,5.558-4.366
			c0.527-0.796,1.191-1.455,1.854-1.985l-4.5-18.794c-0.531-1.321-0.929-2.644-0.929-4.5c0-1.982,0.398-3.969,0.398-5.026
			c0-0.927-0.528-1.19-1.057-1.19c-0.398,0-0.664,0-0.794,0.131v0.531c0,3.042-1.856,5.425-4.898,5.425
			c-3.042,0-5.427-2.513-5.427-5.425c0-2.911,2.384-5.296,5.427-5.296c0.529,0,1.192,0,1.984,0.266c0.927-2.38,3.838-4.5,6.88-4.102
			c-2.115-2.647-5.292-4.236-8.865-4.236c-7.677,0-13.763,5.56-13.763,13.369c0,7.276,5.956,13.101,13.367,13.234L62.576,124.616z
			 M83.088,153.071c1.986,0,4.102-1.061,6.086-3.043c3.574-3.442,8.604-8.604,11.648-10.59c2.646-1.719,4.367-2.38,6.086-2.38
			c1.06,0,1.856,0.264,2.648,1.059l4.5-3.442c-5.161-3.838-7.544-8.867-7.677-15.086c-7.145,3.837-12.307,9.133-18.264,14.159
			c-1.057,0.797-1.587,1.189-2.514,1.189s-1.72-0.924-3.31-2.513c-1.323-1.323-1.588-2.117-1.588-3.042
			c0-1.588,0.531-2.119,0.531-4.236c0-4.234-3.307-6.617-6.483-6.617c-2.648,0-4.633,1.456-5.294,3.311
			c-3.575,0.263-5.825,2.91-5.825,5.688c0,0.664,0.135,1.194,0.268,1.589c-1.324,0.796-2.65,2.382-2.65,4.502
			c0,2.249,1.192,4.365,3.179,5.027c-0.268-0.397-0.398-0.926-0.398-1.587c0-1.191,1.06-2.251,2.515-2.251
			c1.19,0,1.985,0.398,2.912,1.456c1.19,1.588,2.382,3.044,4.368,4.766c1.854,1.587,3.968,2.646,5.955,3.838
			c1.19,0.792,2.115,1.852,2.115,3.44c0,1.059-0.792,2.249-2.38,2.648C80.176,152.41,81.5,153.071,83.088,153.071 M75.544,127.264
			c-0.132-2.647-2.117-4.763-4.632-5.292c0.398-0.267,1.058-0.662,2.117-0.662c1.852,0,3.31,1.587,3.31,3.307
			C76.339,125.94,75.94,126.602,75.544,127.264 M90.234,196.876c-0.531-0.661-0.793-1.322-0.793-2.116
			c0-1.587,1.323-2.779,3.174-2.779c2.913,0,4.5,3.177,8.34,3.177c4.367,0,6.483-3.177,10.454-3.177
			c1.987,0,4.767,1.192,4.767,3.705c0,0.398-0.136,0.795-0.397,1.06c4.5,0,7.672-3.838,7.672-10.191
			c0-8.867-0.261-12.439-0.393-17.336c3.441-0.132,6.748-1.854,6.217-7.278c-0.926,0.792-1.983,1.19-3.173,1.19
			c-1.588,0-2.781-1.19-2.781-2.911c0-0.797,0-1.722,0.13-2.648l15.486-0.397c-1.455-0.792-2.512-2.382-2.512-4.232
			c0-1.323,0.528-2.251,1.588-2.781c-1.458-3.042-2.648-5.425-4.102-7.675c-0.796-1.19-1.722-2.383-3.575-2.383
			c-4.104-0.132-12.44,1.059-16.676,2.515c-3.175,1.059-6.221,3.44-6.221,8.865c0,5.03,1.72,13.898,1.588,27.794
			c0,1.986-0.529,2.647-1.719,2.912c-1.06,0.264-3.839,0.528-5.56,0.264c-0.925-0.133-1.722-0.793-2.251-2.779
			c-0.662-2.778-2.646-5.558-6.617-5.558c-3.574,0-6.748,2.648-6.218,6.617c-1.721,1.059-2.515,2.78-2.515,4.365
			c0,1.59,0.528,2.913,1.189,3.708c-0.396,0.925-0.527,1.454-0.527,2.381C84.81,194.496,87.721,196.876,90.234,196.876
			 M71.572,130.837c-0.792-1.589-2.513-2.514-4.5-2.514c-0.792,0-1.454,0.133-1.982,0.264c0.264-1.06,1.456-1.985,3.177-1.985
			C70.516,126.602,71.97,128.323,71.572,130.837 M94.735,182.054c-0.532-1.189-2.251-2.382-4.367-2.382
			c-1.193,0-1.987,0.265-2.516,0.531c0.13-1.062,1.192-2.251,3.31-2.251C93.675,177.952,94.998,179.937,94.735,182.054
			 M83.483,193.569c-0.395-0.794-0.527-1.589-0.527-2.384c0-0.794,0.132-1.456,0.396-2.117c-0.662-1.192-1.06-2.515-1.06-3.972
			c0-1.983,0.929-3.835,2.252-5.027l-8.206-35.601c-1.325-0.661-2.648-1.455-3.706-2.383c-1.854-1.587-2.911-2.778-4.633-4.764
			c-0.531-0.528-0.929-0.793-1.456-0.793c-0.796,0-1.323,0.529-1.058,1.588l1.719,8.204l3.573,2.515l9.924,42.614L83.483,193.569z
			 M93.941,187.745c-0.796-0.925-2.119-1.72-3.839-1.72c-2.121,0-3.178,0.927-3.708,1.588c-0.262-1.588,1.061-3.572,3.575-3.572
			C92.615,184.041,93.941,185.892,93.941,187.745 M28.562,197.671l8.073-6.221l9.927-42.614l3.572-2.515l7.943-34.143l-1.722-7.94
			c-1.986-0.398-3.708-0.928-5.161-1.722L28.562,197.671z M152.965,196.876c-0.53-0.661-0.795-1.322-0.795-2.116
			c0-1.587,1.323-2.779,3.178-2.779c2.911,0,4.5,3.177,8.337,3.177c4.366,0,6.485-3.177,10.453-3.177
			c1.987,0,4.766,1.192,4.766,3.705c0,0.398-0.133,0.795-0.396,1.06c4.5,0,7.674-3.838,7.674-10.191
			c0-8.469-0.792-17.864-1.722-27.263c2.383-0.528,4.633-2.91,4.633-5.956c0-1.056-0.395-2.248-1.058-3.307
			c-0.664,0.928-1.854,1.72-3.836,2.251c-2.78,0.792-6.221,1.189-8.738,1.189c-5.69,0-7.542-0.397-10.188-1.189
			c-0.133-3.574-2.381-6.486-4.499-8.472c3.307,1.324,4.763,1.985,10.057,1.985c16.94,0,27.395-11.381,27.395-24.352
			c0-9.398-5.955-13.763-11.381-16.94l-5.029,3.573c6.087,2.779,10.058,6.88,10.058,12.439c0,6.088-4.894,10.458-10.584,10.458
			c-6.09,0-10.854-4.37-10.854-10.325c0-4.497,2.115-7.807,6.086-10.983c3.971-3.175,10.059-7.014,13.369-10.586
			c1.721-1.856,3.175-4.767,3.042-7.017c2.251-1.058,3.971-3.306,3.971-6.219c0-3.836-3.703-6.748-7.674-6.748
			c-2.384,0-5.029,1.454-6.355,3.042c2.384,0.927,4.634,4.102,4.634,7.411c0,2.781-1.719,5.162-3.705,7.146
			c-3.044,3.046-7.014,5.296-11.383,8.869c-5.294,4.367-8.471,9.528-8.471,15.351c0,8.073,6.221,15.617,16.013,15.617
			c3.176,0,5.691-0.662,7.545-1.854c-3.176,3.706-9.129,5.56-15.35,5.56c-5.429,0-9.133-0.796-13.102-3.705
			c-3.575-2.646-6.354-8.867-6.221-13.5c-2.911,1.721-6.354,3.308-9.265,4.633c-4.104,1.984-5.426,4.102-5.426,7.675
			c0,4.765,3.309,8.471,4.763,11.249c1.986,3.573,2.647,6.749,2.911,10.058c0.796,8.074,5.429,11.78,13.631,11.78
			c3.708,0,8.603-0.266,10.588-0.532c0.794,3.709,1.721,8.073,1.721,11.384c0,1.986-0.531,2.647-1.721,2.912
			c-1.058,0.264-3.838,0.528-5.557,0.264c-0.925-0.133-1.721-0.793-2.252-2.779c-0.659-2.778-2.646-5.558-6.614-5.558
			c-3.575,0-6.75,2.648-6.221,6.617c-1.722,1.059-2.516,2.78-2.516,4.365c0,1.59,0.529,2.913,1.192,3.708
			c-0.397,0.925-0.531,1.454-0.531,2.381C147.537,194.496,150.451,196.876,152.965,196.876"/>
        <path fill="#0065BD" d="M539.034,209.594h18.861v-6.235h-10.978v-4.423h10.62v-6.073h-10.62v-4.385h10.978v-6.234h-18.861V209.594
			z M519.407,210.235c6.436,0,11.783-3.098,11.783-10.739v-17.253h-7.882v16.53c0,3.097-1.688,4.462-3.901,4.462
			c-2.211,0-3.899-1.365-3.899-4.462v-16.53h-7.884v17.253C507.624,207.138,512.975,210.235,519.407,210.235 M491.097,210.235
			c4.864,0,8.243-1.487,9.892-2.334v-12.104h-7.681v7.4c-0.563,0.121-1.166,0.201-1.769,0.201c-3.059,0-6.436-2.332-6.436-7.481
			c0-5.549,2.974-8.283,8.081-8.283c2.819,0,5.23,0.965,6.719,1.77v-6.436c-1.608-0.725-4.265-1.729-7.882-1.729
			c-9.292,0-15.527,5.75-15.527,14.679C476.494,204.848,483.453,210.235,491.097,210.235 M456.627,198.331l2.694-10.095h0.362
			l2.696,10.095H456.627z M465.395,209.594h8.086l-8.206-27.351h-11.541l-8.166,27.351h8.084l1.49-5.671h8.727L465.395,209.594z
			 M428.314,194.872v-6.799h3.176c2.134,0,3.38,1.651,3.38,3.38c0,1.73-1.246,3.419-3.38,3.419H428.314z M420.431,209.594h7.884
			v-9.614h2.011l4.744,9.614h8.89l-5.024-8.447c-0.523-0.885-1.169-1.688-1.531-1.93l0.04-0.163
			c2.414-1.085,5.833-3.137,5.833-7.801c0-4.907-3.902-9.01-10.295-9.01h-12.551V209.594z M400.203,194.872v-6.756h3.097
			c1.726,0,3.297,1.445,3.297,3.376c0,1.974-1.571,3.38-3.297,3.38H400.203z M392.319,209.594h7.884v-8.849h4.022
			c6.393,0,10.374-4.062,10.374-9.09s-3.981-9.412-10.374-9.412h-11.906V209.594z M348.28,209.594h7.884v-16.41h0.12l8.287,16.41
			h9.61v-27.351h-7.881v16.329h-0.122l-8.203-16.329h-9.695V209.594z M332.355,209.594h7.883v-27.351h-7.883V209.594z
			 M302.636,210.235c6.433,0,11.781-3.098,11.781-10.739v-17.253h-7.883v16.53c0,3.097-1.687,4.462-3.898,4.462
			c-2.213,0-3.901-1.365-3.901-4.462v-16.53h-7.883v17.253C290.852,207.138,296.2,210.235,302.636,210.235 M271.227,209.594h7.881
			v-20.956h6.795v-6.395h-21.515v6.395h6.838V209.594z M253.287,210.034c3.258,0,5.993-0.846,7.643-1.688v-6.878
			c-1.57,0.845-3.378,1.569-6.236,1.569c-2.856,0-6.997-2.173-6.997-7.12c0-4.944,3.782-7.279,7.442-7.279
			c2.493,0,4.221,0.564,5.749,1.327v-6.796c-1.608-0.723-3.618-1.287-6.837-1.287c-8.084,0-14.959,5.311-14.959,14.035
			C239.092,204.644,245.246,210.034,253.287,210.034"/>
        <path fill="#0065BD" d="M524.515,169.281c4.864,0,8.244-1.488,9.892-2.331v-12.108h-7.681v7.401c-0.562,0.121-1.168,0.2-1.771,0.2
			c-3.057,0-6.434-2.332-6.434-7.479c0-5.55,2.974-8.285,8.081-8.285c2.816,0,5.23,0.967,6.719,1.769v-6.435
			c-1.608-0.726-4.262-1.731-7.881-1.731c-9.292,0-15.528,5.752-15.528,14.683C509.912,163.893,516.871,169.281,524.515,169.281
			 M477.577,168.639h7.884v-16.409h0.123l8.283,16.409h9.612v-27.351h-7.884v16.33h-0.12l-8.204-16.33h-9.694V168.639z
			 M461.652,168.639h7.881v-27.351h-7.881V168.639z M440.3,153.917v-6.796h3.177c2.131,0,3.376,1.648,3.376,3.379
			c0,1.729-1.245,3.417-3.376,3.417H440.3z M432.416,168.639h7.884v-9.612h2.008l4.748,9.612h8.887l-5.027-8.448
			c-0.523-0.884-1.166-1.687-1.526-1.929l0.04-0.16c2.411-1.087,5.83-3.137,5.83-7.802c0-4.907-3.898-9.012-10.297-9.012h-12.546
			V168.639z M406.356,168.639h18.858v-6.235h-10.978v-4.424h10.617v-6.071h-10.617v-4.385h10.978v-6.235h-18.858V168.639z
			 M380.292,168.639h18.866v-6.235h-10.983v-4.424h10.62v-6.071h-10.62v-4.385h10.983v-6.235h-18.866V168.639z M346.35,168.639
			h7.884v-16.409h0.12l8.286,16.409h9.609v-27.351h-7.881v16.33h-0.121l-8.203-16.33h-9.694V168.639z M330.425,168.639h7.881
			v-27.351h-7.881V168.639z M313.693,169.281c4.867,0,8.246-1.488,9.896-2.331v-12.108h-7.685v7.401
			c-0.562,0.121-1.163,0.2-1.768,0.2c-3.056,0-6.436-2.332-6.436-7.479c0-5.55,2.979-8.285,8.084-8.285
			c2.816,0,5.228,0.967,6.715,1.769v-6.435c-1.607-0.726-4.261-1.731-7.882-1.731c-9.29,0-15.523,5.752-15.523,14.683
			C299.095,163.893,306.052,169.281,313.693,169.281 M266.76,168.639h7.884v-16.409h0.12l8.284,16.409h9.612v-27.351h-7.882v16.33
			h-0.119l-8.207-16.33h-9.692V168.639z M240.7,168.639h18.861v-6.235h-10.979v-4.424h10.62v-6.071h-10.62v-4.385h10.979v-6.235
			H240.7V168.639z"/>
        <path fill="#0065BD" d="M533.204,127.686h17.655v-6.477h-9.774v-20.874h-7.881V127.686z M512.129,116.422l2.693-10.094h0.363
			l2.69,10.094H512.129z M520.896,127.686h8.084l-8.207-27.351h-11.54l-8.164,27.351h8.081l1.488-5.673h8.729L520.896,127.686z
			 M490.008,128.126c3.26,0,5.993-0.843,7.642-1.688v-6.879c-1.568,0.846-3.377,1.569-6.233,1.569s-6.998-2.172-6.998-7.119
			c0-4.946,3.779-7.278,7.441-7.278c2.493,0,4.222,0.562,5.75,1.327v-6.798c-1.608-0.722-3.619-1.286-6.836-1.286
			c-8.084,0-14.965,5.31-14.965,14.036C475.809,122.737,481.965,128.126,490.008,128.126 M461.495,127.686h7.881v-27.351h-7.881
			V127.686z M440.14,112.964v-6.796h3.177c2.131,0,3.376,1.649,3.376,3.38c0,1.729-1.245,3.416-3.376,3.416H440.14z
			 M432.256,127.686h7.884v-9.612h2.009l4.747,9.612h8.887l-5.027-8.448c-0.521-0.883-1.163-1.688-1.528-1.93l0.043-0.159
			c2.41-1.087,5.83-3.139,5.83-7.804c0-4.907-3.899-9.009-10.298-9.009h-12.546V127.686z M412.429,127.686h7.882v-20.954h6.798
			v-6.397h-21.518v6.397h6.838V127.686z M394.49,128.126c3.257,0,5.993-0.843,7.645-1.688v-6.879
			c-1.568,0.846-3.38,1.569-6.236,1.569s-6.998-2.172-6.998-7.119c0-4.946,3.782-7.278,7.441-7.278c2.49,0,4.225,0.562,5.75,1.327
			v-6.798c-1.608-0.722-3.616-1.286-6.839-1.286c-8.081,0-14.96,5.31-14.96,14.036C380.293,122.737,386.446,128.126,394.49,128.126
			 M355.841,127.686h18.863v-6.235h-10.979v-4.423h10.618v-6.073h-10.618v-4.385h10.979v-6.235h-18.863V127.686z M334.165,127.686
			h17.656v-6.477h-9.772v-20.874h-7.884V127.686z M308.105,127.686h18.858v-6.235h-10.978v-4.423h10.618v-6.073h-10.618v-4.385
			h10.978v-6.235h-18.858V127.686z M272.874,100.335v27.351h7.882v-10.578h10.698v-6.073h-10.698v-4.465h10.819v-6.235H272.874z
			 M252.806,121.33c-3.5,0-5.269-2.815-5.269-7.32c0-4.505,1.768-7.319,5.269-7.319c3.539,0,5.186,2.814,5.186,7.319
			C257.992,118.515,256.345,121.33,252.806,121.33 M252.806,128.328c8.164,0,13.633-5.188,13.633-14.318
			c0-9.128-5.469-14.318-13.633-14.318c-8.125,0-13.714,5.19-13.714,14.318C239.092,123.141,244.681,128.328,252.806,128.328"/>
        <path fill="#0065BD" d="M400.286,86.732h7.881V76.716l9.449-17.334h-8.727l-4.464,9.774h-0.16l-4.303-9.774h-8.932l9.255,17.334
			V86.732z M375.027,86.732h7.883V65.777h6.796v-6.395h-21.518v6.395h6.839V86.732z M351.056,86.732h17.656v-6.477h-9.772V59.382
			h-7.884V86.732z M331.432,87.375c6.433,0,11.784-3.097,11.784-10.738V59.382h-7.884v16.53c0,3.097-1.689,4.463-3.9,4.463
			s-3.9-1.366-3.9-4.463v-16.53h-7.884v17.254C319.647,84.277,324.997,87.375,331.432,87.375 M306.253,87.173
			c3.26,0,5.994-0.845,7.645-1.688v-6.878c-1.567,0.845-3.378,1.569-6.236,1.569c-2.854,0-6.997-2.172-6.997-7.121
			c0-4.945,3.782-7.278,7.438-7.278c2.494,0,4.228,0.564,5.753,1.327v-6.796c-1.608-0.722-3.617-1.286-6.837-1.286
			c-8.084,0-14.962,5.31-14.962,14.034C292.057,81.784,298.212,87.173,306.253,87.173 M272.19,75.469l2.693-10.095h0.363
			l2.696,10.095H272.19z M280.957,86.732h8.086l-8.207-27.35h-11.542l-8.165,27.35h8.083l1.491-5.671h8.727L280.957,86.732z
			 M240.7,59.382v27.35h7.883V76.154h10.697v-6.073h-10.697v-4.465h10.819v-6.234H240.7z"/>
	</g>
</g>
</svg>
